# This file uses centimeters as units for non-parametric coordinates.

mtllib TransformGizmo.mtl
g default
v 0.103397 0.033596 0.454545
v 0.087955 0.063903 0.454545
v 0.063903 0.087955 0.454545
v 0.033596 0.103397 0.454545
v 0.000000 0.108718 0.454545
v -0.033596 0.103397 0.454545
v -0.063903 0.087955 0.454545
v -0.087955 0.063903 0.454545
v -0.103397 0.033596 0.454545
v -0.108718 0.000000 0.454545
v -0.103397 -0.033596 0.454545
v -0.087955 -0.063903 0.454545
v -0.063903 -0.087955 0.454545
v -0.033596 -0.103397 0.454545
v -0.000000 -0.108718 0.454545
v 0.033596 -0.103397 0.454545
v 0.063903 -0.087955 0.454545
v 0.087955 -0.063903 0.454545
v 0.103397 -0.033596 0.454545
v 0.108718 0.000000 0.454545
v 0.103397 0.033596 3.454545
v 0.087955 0.063903 3.454545
v 0.063903 0.087955 3.454545
v 0.033596 0.103397 3.454545
v 0.000000 0.108718 3.454545
v -0.033596 0.103397 3.454545
v -0.063903 0.087955 3.454545
v -0.087955 0.063903 3.454545
v -0.103397 0.033596 3.454545
v -0.108718 0.000000 3.454545
v -0.103397 -0.033596 3.454545
v -0.087955 -0.063903 3.454545
v -0.063903 -0.087955 3.454545
v -0.033596 -0.103397 3.454545
v -0.000000 -0.108718 3.454545
v 0.033596 -0.103397 3.454545
v 0.063903 -0.087955 3.454545
v 0.087955 -0.063903 3.454545
v 0.103397 -0.033596 3.454545
v 0.108718 0.000000 3.454545
v 0.000000 0.000000 0.454545
v 0.000000 0.000000 3.454545
v 0.266400 0.086559 3.192939
v 0.226614 0.164645 3.192939
v 0.164645 0.226614 3.192939
v 0.086559 0.266400 3.192939
v 0.000000 0.280110 3.192939
v -0.086559 0.266400 3.192939
v -0.164645 0.226614 3.192939
v -0.226614 0.164644 3.192939
v -0.266400 0.086559 3.192939
v -0.280110 0.000000 3.192939
v -0.266400 -0.086559 3.192939
v -0.226614 -0.164644 3.192939
v -0.164644 -0.226614 3.192939
v -0.086559 -0.266400 3.192939
v -0.000000 -0.280110 3.192939
v 0.086559 -0.266400 3.192939
v 0.164644 -0.226614 3.192939
v 0.226614 -0.164644 3.192939
v 0.266400 -0.086559 3.192939
v 0.280110 0.000000 3.192939
v 0.000000 0.000000 4.170717
vt 0.648603 0.107966
vt 0.626409 0.064408
vt 0.591842 0.029841
vt 0.548284 0.007647
vt 0.500000 -0.000000
vt 0.451716 0.007647
vt 0.408159 0.029841
vt 0.373591 0.064409
vt 0.351397 0.107966
vt 0.343750 0.156250
vt 0.351397 0.204534
vt 0.373591 0.248091
vt 0.408159 0.282659
vt 0.451716 0.304853
vt 0.500000 0.312500
vt 0.548284 0.304853
vt 0.591841 0.282659
vt 0.626409 0.248091
vt 0.648603 0.204534
vt 0.656250 0.156250
vt 0.375000 0.312500
vt 0.387500 0.312500
vt 0.400000 0.312500
vt 0.412500 0.312500
vt 0.425000 0.312500
vt 0.437500 0.312500
vt 0.450000 0.312500
vt 0.462500 0.312500
vt 0.475000 0.312500
vt 0.487500 0.312500
vt 0.500000 0.312500
vt 0.512500 0.312500
vt 0.525000 0.312500
vt 0.537500 0.312500
vt 0.550000 0.312500
vt 0.562500 0.312500
vt 0.575000 0.312500
vt 0.587500 0.312500
vt 0.600000 0.312500
vt 0.612500 0.312500
vt 0.625000 0.312500
vt 0.375000 0.687500
vt 0.387500 0.687500
vt 0.400000 0.687500
vt 0.412500 0.687500
vt 0.425000 0.687500
vt 0.437500 0.687500
vt 0.450000 0.687500
vt 0.462500 0.687500
vt 0.475000 0.687500
vt 0.487500 0.687500
vt 0.500000 0.687500
vt 0.512500 0.687500
vt 0.525000 0.687500
vt 0.537500 0.687500
vt 0.550000 0.687500
vt 0.562500 0.687500
vt 0.575000 0.687500
vt 0.587500 0.687500
vt 0.600000 0.687500
vt 0.612500 0.687500
vt 0.625000 0.687500
vt 0.648603 0.795466
vt 0.626409 0.751908
vt 0.591842 0.717341
vt 0.548284 0.695147
vt 0.500000 0.687500
vt 0.451716 0.695147
vt 0.408159 0.717341
vt 0.373591 0.751909
vt 0.351397 0.795466
vt 0.343750 0.843750
vt 0.351397 0.892034
vt 0.373591 0.935591
vt 0.408159 0.970159
vt 0.451716 0.992353
vt 0.500000 1.000000
vt 0.548284 0.992353
vt 0.591841 0.970159
vt 0.626409 0.935591
vt 0.648603 0.892034
vt 0.656250 0.843750
vt 0.500000 0.156250
vt 0.500000 0.843750
vt 0.737764 0.172746
vt 0.750000 0.250000
vt 0.737764 0.327254
vt 0.702254 0.396946
vt 0.646946 0.452254
vt 0.577254 0.487764
vt 0.500000 0.500000
vt 0.422746 0.487764
vt 0.353054 0.452254
vt 0.297746 0.396946
vt 0.262236 0.327254
vt 0.250000 0.250000
vt 0.262236 0.172746
vt 0.297746 0.103054
vt 0.353054 0.047746
vt 0.422746 0.012236
vt 0.500000 -0.000000
vt 0.577254 0.012236
vt 0.646946 0.047746
vt 0.702254 0.103054
vt 0.250000 0.500000
vt 0.275000 0.500000
vt 0.500000 1.000000
vt 0.300000 0.500000
vt 0.325000 0.500000
vt 0.350000 0.500000
vt 0.375000 0.500000
vt 0.400000 0.500000
vt 0.425000 0.500000
vt 0.450000 0.500000
vt 0.475000 0.500000
vt 0.500000 0.500000
vt 0.525000 0.500000
vt 0.550000 0.500000
vt 0.575000 0.500000
vt 0.600000 0.500000
vt 0.625000 0.500000
vt 0.650000 0.500000
vt 0.675000 0.500000
vt 0.700000 0.500000
vt 0.725000 0.500000
vt 0.750000 0.500000
vn 0.951057 0.309016 -0.000000
vn 0.809017 0.587785 -0.000000
vn 0.809017 0.587785 -0.000000
vn 0.951057 0.309016 -0.000000
vn 0.587785 0.809017 -0.000000
vn 0.587785 0.809017 -0.000000
vn 0.309017 0.951057 -0.000000
vn 0.309017 0.951057 -0.000000
vn -0.000000 1.000000 -0.000000
vn -0.000000 1.000000 -0.000000
vn -0.309017 0.951057 -0.000000
vn -0.309017 0.951057 -0.000000
vn -0.587786 0.809017 -0.000000
vn -0.587786 0.809017 -0.000000
vn -0.809017 0.587785 -0.000000
vn -0.809017 0.587785 -0.000000
vn -0.951057 0.309017 -0.000000
vn -0.951057 0.309017 -0.000000
vn -1.000000 -0.000000 -0.000000
vn -1.000000 -0.000000 -0.000000
vn -0.951057 -0.309017 -0.000000
vn -0.951057 -0.309017 -0.000000
vn -0.809017 -0.587786 -0.000000
vn -0.809017 -0.587786 -0.000000
vn -0.587785 -0.809017 -0.000000
vn -0.587785 -0.809017 -0.000000
vn -0.309017 -0.951057 -0.000000
vn -0.309017 -0.951057 -0.000000
vn 0.000000 -1.000000 -0.000000
vn 0.000000 -1.000000 -0.000000
vn 0.309017 -0.951057 -0.000000
vn 0.309017 -0.951057 -0.000000
vn 0.587785 -0.809017 -0.000000
vn 0.587785 -0.809017 -0.000000
vn 0.809017 -0.587786 -0.000000
vn 0.809017 -0.587786 -0.000000
vn 0.951057 -0.309017 -0.000000
vn 0.951057 -0.309017 -0.000000
vn 1.000000 -0.000001 -0.000000
vn 1.000000 -0.000001 -0.000000
vn 0.000000 -0.000000 -1.000000
vn 0.000000 -0.000000 -1.000000
vn 0.000000 -0.000000 -1.000000
vn 0.000000 -0.000000 -1.000000
vn 0.000000 -0.000000 -1.000000
vn 0.000000 -0.000000 -1.000000
vn 0.000000 -0.000000 -1.000000
vn 0.000000 -0.000000 -1.000000
vn 0.000000 -0.000000 -1.000000
vn 0.000000 -0.000000 -1.000000
vn 0.000000 -0.000000 -1.000000
vn 0.000000 -0.000000 -1.000000
vn 0.000000 -0.000000 -1.000000
vn 0.000000 -0.000000 -1.000000
vn 0.000000 -0.000000 -1.000000
vn 0.000000 -0.000000 -1.000000
vn 0.000000 -0.000000 -1.000000
vn 0.000000 -0.000000 -1.000000
vn 0.000000 -0.000000 -1.000000
vn 0.000000 -0.000000 -1.000000
vn 0.000000 -0.000000 -1.000000
vn 0.000000 0.000000 1.000000
vn 0.000000 -0.000008 1.000000
vn 0.000000 -0.000001 1.000000
vn 0.000000 -0.000008 1.000000
vn 0.000000 0.000000 1.000000
vn 0.000000 0.000000 1.000000
vn 0.000000 0.000000 1.000000
vn 0.000000 0.000004 1.000000
vn 0.000000 -0.000004 1.000000
vn 0.000000 0.000000 1.000000
vn 0.000000 -0.000000 1.000000
vn 0.000000 -0.000008 1.000000
vn 0.000000 0.000000 1.000000
vn 0.000000 0.000000 1.000000
vn 0.000000 0.000000 1.000000
vn 0.000000 0.000001 1.000000
vn 0.000000 0.000001 1.000000
vn 0.000000 0.000000 1.000000
vn 0.000000 0.000000 1.000000
vn 0.000000 0.000000 1.000000
vn 0.000000 0.000000 1.000000
vn 0.000000 0.000000 -1.000000
vn 0.000000 0.000000 -1.000000
vn 0.000000 0.000000 -1.000000
vn 0.000000 0.000000 -1.000000
vn 0.000000 0.000000 -1.000000
vn 0.000000 0.000000 -1.000000
vn 0.000000 0.000000 -1.000000
vn 0.000000 0.000000 -1.000000
vn 0.000000 0.000000 -1.000000
vn 0.000000 0.000000 -1.000000
vn 0.000000 0.000000 -1.000000
vn 0.000000 0.000000 -1.000000
vn 0.000000 0.000000 -1.000000
vn 0.000000 0.000000 -1.000000
vn 0.000000 0.000000 -1.000000
vn 0.000000 0.000000 -1.000000
vn 0.000000 0.000000 -1.000000
vn 0.000000 0.000000 -1.000000
vn 0.000000 0.000000 -1.000000
vn 0.000000 0.000000 -1.000000
vn 0.914280 0.297067 0.275398
vn 0.777733 0.565056 0.275398
vn -0.000003 0.000002 1.000000
vn 0.565056 0.777733 0.275398
vn 0.297067 0.914279 0.275398
vn 0.000000 0.961330 0.275398
vn -0.297068 0.914279 0.275398
vn -0.565056 0.777732 0.275398
vn -0.777733 0.565056 0.275398
vn -0.914280 0.297067 0.275398
vn -0.961330 -0.000001 0.275398
vn -0.914279 -0.297068 0.275398
vn -0.777733 -0.565055 0.275398
vn -0.565056 -0.777732 0.275398
vn -0.297067 -0.914280 0.275398
vn 0.000000 -0.961330 0.275398
vn 0.297068 -0.914279 0.275398
vn 0.565056 -0.777733 0.275398
vn 0.777732 -0.565056 0.275398
vn 0.914279 -0.297068 0.275398
vn 0.961330 -0.000001 0.275398
s 1
g Gizmo_Z2
usemtl lambert4SG
f 1/21/1 2/22/2 22/43/3 21/42/4
f 2/22/2 3/23/5 23/44/6 22/43/3
f 3/23/5 4/24/7 24/45/8 23/44/6
f 4/24/7 5/25/9 25/46/10 24/45/8
f 5/25/9 6/26/11 26/47/12 25/46/10
f 6/26/11 7/27/13 27/48/14 26/47/12
f 7/27/13 8/28/15 28/49/16 27/48/14
f 8/28/15 9/29/17 29/50/18 28/49/16
f 9/29/17 10/30/19 30/51/20 29/50/18
f 10/30/19 11/31/21 31/52/22 30/51/20
f 11/31/21 12/32/23 32/53/24 31/52/22
f 12/32/23 13/33/25 33/54/26 32/53/24
f 13/33/25 14/34/27 34/55/28 33/54/26
f 14/34/27 15/35/29 35/56/30 34/55/28
f 15/35/29 16/36/31 36/57/32 35/56/30
f 16/36/31 17/37/33 37/58/34 36/57/32
f 17/37/33 18/38/35 38/59/36 37/58/34
f 18/38/35 19/39/37 39/60/38 38/59/36
f 19/39/37 20/40/39 40/61/40 39/60/38
f 20/40/39 1/41/1 21/62/4 40/61/40
s 2
f 2/2/41 1/1/42 41/83/43
f 3/3/44 2/2/41 41/83/43
f 4/4/45 3/3/44 41/83/43
f 5/5/46 4/4/45 41/83/43
f 6/6/47 5/5/46 41/83/43
f 7/7/48 6/6/47 41/83/43
f 8/8/49 7/7/48 41/83/43
f 9/9/50 8/8/49 41/83/43
f 10/10/51 9/9/50 41/83/43
f 11/11/52 10/10/51 41/83/43
f 12/12/53 11/11/52 41/83/43
f 13/13/54 12/12/53 41/83/43
f 14/14/55 13/13/54 41/83/43
f 15/15/56 14/14/55 41/83/43
f 16/16/57 15/15/56 41/83/43
f 17/17/58 16/16/57 41/83/43
f 18/18/59 17/17/58 41/83/43
f 19/19/60 18/18/59 41/83/43
f 20/20/61 19/19/60 41/83/43
f 1/1/42 20/20/61 41/83/43
s 3
f 21/81/62 22/80/63 42/84/64
f 22/80/63 23/79/65 42/84/64
f 23/79/65 24/78/66 42/84/64
f 24/78/66 25/77/67 42/84/64
f 25/77/67 26/76/68 42/84/64
f 26/76/68 27/75/69 42/84/64
f 27/75/69 28/74/70 42/84/64
f 28/74/70 29/73/71 42/84/64
f 29/73/71 30/72/72 42/84/64
f 30/72/72 31/71/73 42/84/64
f 31/71/73 32/70/74 42/84/64
f 32/70/74 33/69/75 42/84/64
f 33/69/75 34/68/76 42/84/64
f 34/68/76 35/67/77 42/84/64
f 35/67/77 36/66/78 42/84/64
f 36/66/78 37/65/79 42/84/64
f 37/65/79 38/64/80 42/84/64
f 38/64/80 39/63/81 42/84/64
f 39/63/81 40/82/82 42/84/64
f 40/82/82 21/81/62 42/84/64
s off
f 43/85/83 62/86/84 61/87/85 60/88/86 59/89/87 58/90/88 57/91/89 56/92/90 55/93/91 54/94/92 53/95/93 52/96/94 51/97/95 50/98/96 49/99/97 48/100/98 47/101/99 46/102/100 45/103/101 44/104/102
s 4
f 43/105/103 44/106/104 63/107/105
f 44/106/104 45/108/106 63/107/105
f 45/108/106 46/109/107 63/107/105
f 46/109/107 47/110/108 63/107/105
f 47/110/108 48/111/109 63/107/105
f 48/111/109 49/112/110 63/107/105
f 49/112/110 50/113/111 63/107/105
f 50/113/111 51/114/112 63/107/105
f 51/114/112 52/115/113 63/107/105
f 52/115/113 53/116/114 63/107/105
f 53/116/114 54/117/115 63/107/105
f 54/117/115 55/118/116 63/107/105
f 55/118/116 56/119/117 63/107/105
f 56/119/117 57/120/118 63/107/105
f 57/120/118 58/121/119 63/107/105
f 58/121/119 59/122/120 63/107/105
f 59/122/120 60/123/121 63/107/105
f 60/123/121 61/124/122 63/107/105
f 61/124/122 62/125/123 63/107/105
f 62/125/123 43/126/103 63/107/105
g default
v 0.454545 -0.103397 -0.033596
v 0.454545 -0.087955 -0.063903
v 0.454545 -0.063903 -0.087955
v 0.454545 -0.033596 -0.103397
v 0.454545 0.000000 -0.108718
v 0.454545 0.033596 -0.103397
v 0.454545 0.063903 -0.087955
v 0.454545 0.087955 -0.063903
v 0.454545 0.103397 -0.033596
v 0.454545 0.108718 0.000000
v 0.454545 0.103397 0.033596
v 0.454545 0.087955 0.063903
v 0.454545 0.063903 0.087955
v 0.454545 0.033596 0.103397
v 0.454545 0.000000 0.108718
v 0.454545 -0.033596 0.103397
v 0.454545 -0.063903 0.087955
v 0.454545 -0.087955 0.063903
v 0.454545 -0.103397 0.033596
v 0.454545 -0.108718 0.000000
v 3.454545 -0.103397 -0.033596
v 3.454545 -0.087955 -0.063903
v 3.454545 -0.063903 -0.087955
v 3.454545 -0.033596 -0.103397
v 3.454545 -0.000000 -0.108718
v 3.454545 0.033596 -0.103397
v 3.454545 0.063903 -0.087955
v 3.454545 0.087955 -0.063903
v 3.454545 0.103397 -0.033596
v 3.454545 0.108718 -0.000000
v 3.454545 0.103397 0.033596
v 3.454545 0.087955 0.063903
v 3.454545 0.063903 0.087955
v 3.454545 0.033596 0.103397
v 3.454545 0.000000 0.108718
v 3.454545 -0.033596 0.103397
v 3.454545 -0.063903 0.087955
v 3.454545 -0.087955 0.063903
v 3.454545 -0.103397 0.033596
v 3.454545 -0.108718 -0.000000
v 0.454545 0.000000 0.000000
v 3.454545 -0.000000 -0.000000
v 3.192939 -0.266400 -0.086559
v 3.192939 -0.226614 -0.164645
v 3.192939 -0.164645 -0.226614
v 3.192939 -0.086559 -0.266400
v 3.192939 0.000000 -0.280110
v 3.192939 0.086559 -0.266400
v 3.192939 0.164645 -0.226614
v 3.192939 0.226614 -0.164644
v 3.192939 0.266400 -0.086559
v 3.192939 0.280110 0.000000
v 3.192939 0.266400 0.086559
v 3.192939 0.226614 0.164644
v 3.192939 0.164644 0.226614
v 3.192939 0.086559 0.266400
v 3.192939 0.000000 0.280110
v 3.192939 -0.086559 0.266400
v 3.192939 -0.164644 0.226614
v 3.192939 -0.226614 0.164644
v 3.192939 -0.266400 0.086559
v 3.192939 -0.280110 0.000000
v 4.170717 0.000000 0.000000
vt 0.648603 0.107966
vt 0.626409 0.064408
vt 0.591842 0.029841
vt 0.548284 0.007647
vt 0.500000 -0.000000
vt 0.451716 0.007647
vt 0.408159 0.029841
vt 0.373591 0.064409
vt 0.351397 0.107966
vt 0.343750 0.156250
vt 0.351397 0.204534
vt 0.373591 0.248091
vt 0.408159 0.282659
vt 0.451716 0.304853
vt 0.500000 0.312500
vt 0.548284 0.304853
vt 0.591841 0.282659
vt 0.626409 0.248091
vt 0.648603 0.204534
vt 0.656250 0.156250
vt 0.375000 0.312500
vt 0.387500 0.312500
vt 0.400000 0.312500
vt 0.412500 0.312500
vt 0.425000 0.312500
vt 0.437500 0.312500
vt 0.450000 0.312500
vt 0.462500 0.312500
vt 0.475000 0.312500
vt 0.487500 0.312500
vt 0.500000 0.312500
vt 0.512500 0.312500
vt 0.525000 0.312500
vt 0.537500 0.312500
vt 0.550000 0.312500
vt 0.562500 0.312500
vt 0.575000 0.312500
vt 0.587500 0.312500
vt 0.600000 0.312500
vt 0.612500 0.312500
vt 0.625000 0.312500
vt 0.375000 0.687500
vt 0.387500 0.687500
vt 0.400000 0.687500
vt 0.412500 0.687500
vt 0.425000 0.687500
vt 0.437500 0.687500
vt 0.450000 0.687500
vt 0.462500 0.687500
vt 0.475000 0.687500
vt 0.487500 0.687500
vt 0.500000 0.687500
vt 0.512500 0.687500
vt 0.525000 0.687500
vt 0.537500 0.687500
vt 0.550000 0.687500
vt 0.562500 0.687500
vt 0.575000 0.687500
vt 0.587500 0.687500
vt 0.600000 0.687500
vt 0.612500 0.687500
vt 0.625000 0.687500
vt 0.648603 0.795466
vt 0.626409 0.751908
vt 0.591842 0.717341
vt 0.548284 0.695147
vt 0.500000 0.687500
vt 0.451716 0.695147
vt 0.408159 0.717341
vt 0.373591 0.751909
vt 0.351397 0.795466
vt 0.343750 0.843750
vt 0.351397 0.892034
vt 0.373591 0.935591
vt 0.408159 0.970159
vt 0.451716 0.992353
vt 0.500000 1.000000
vt 0.548284 0.992353
vt 0.591841 0.970159
vt 0.626409 0.935591
vt 0.648603 0.892034
vt 0.656250 0.843750
vt 0.500000 0.156250
vt 0.500000 0.843750
vt 0.737764 0.172746
vt 0.750000 0.250000
vt 0.737764 0.327254
vt 0.702254 0.396946
vt 0.646946 0.452254
vt 0.577254 0.487764
vt 0.500000 0.500000
vt 0.422746 0.487764
vt 0.353054 0.452254
vt 0.297746 0.396946
vt 0.262236 0.327254
vt 0.250000 0.250000
vt 0.262236 0.172746
vt 0.297746 0.103054
vt 0.353054 0.047746
vt 0.422746 0.012236
vt 0.500000 -0.000000
vt 0.577254 0.012236
vt 0.646946 0.047746
vt 0.702254 0.103054
vt 0.250000 0.500000
vt 0.275000 0.500000
vt 0.500000 1.000000
vt 0.300000 0.500000
vt 0.325000 0.500000
vt 0.350000 0.500000
vt 0.375000 0.500000
vt 0.400000 0.500000
vt 0.425000 0.500000
vt 0.450000 0.500000
vt 0.475000 0.500000
vt 0.500000 0.500000
vt 0.525000 0.500000
vt 0.550000 0.500000
vt 0.575000 0.500000
vt 0.600000 0.500000
vt 0.625000 0.500000
vt 0.650000 0.500000
vt 0.675000 0.500000
vt 0.700000 0.500000
vt 0.725000 0.500000
vt 0.750000 0.500000
vn -0.000000 -0.951057 -0.309016
vn -0.000000 -0.809017 -0.587785
vn -0.000000 -0.809017 -0.587785
vn -0.000000 -0.951057 -0.309016
vn -0.000000 -0.587785 -0.809017
vn -0.000000 -0.587785 -0.809017
vn -0.000000 -0.309017 -0.951057
vn -0.000000 -0.309017 -0.951057
vn -0.000000 0.000000 -1.000000
vn -0.000000 0.000000 -1.000000
vn -0.000000 0.309017 -0.951057
vn -0.000000 0.309017 -0.951057
vn -0.000000 0.587786 -0.809017
vn -0.000000 0.587786 -0.809017
vn -0.000000 0.809017 -0.587785
vn -0.000000 0.809017 -0.587785
vn -0.000000 0.951057 -0.309017
vn -0.000000 0.951057 -0.309017
vn -0.000000 1.000000 0.000000
vn -0.000000 1.000000 0.000000
vn -0.000000 0.951057 0.309017
vn -0.000000 0.951057 0.309017
vn -0.000000 0.809017 0.587786
vn -0.000000 0.809017 0.587786
vn -0.000000 0.587785 0.809017
vn -0.000000 0.587785 0.809017
vn -0.000000 0.309017 0.951057
vn -0.000000 0.309017 0.951057
vn -0.000000 -0.000000 1.000000
vn -0.000000 -0.000000 1.000000
vn -0.000000 -0.309017 0.951057
vn -0.000000 -0.309017 0.951057
vn -0.000000 -0.587785 0.809017
vn -0.000000 -0.587785 0.809017
vn -0.000000 -0.809017 0.587786
vn -0.000000 -0.809017 0.587786
vn -0.000000 -0.951057 0.309017
vn -0.000000 -0.951057 0.309017
vn -0.000000 -1.000000 0.000001
vn -0.000000 -1.000000 0.000001
vn -1.000000 -0.000000 0.000000
vn -1.000000 -0.000000 0.000000
vn -1.000000 -0.000000 0.000000
vn -1.000000 -0.000000 0.000000
vn -1.000000 -0.000000 0.000000
vn -1.000000 -0.000000 0.000000
vn -1.000000 -0.000000 0.000000
vn -1.000000 -0.000000 0.000000
vn -1.000000 -0.000000 0.000000
vn -1.000000 -0.000000 0.000000
vn -1.000000 -0.000000 0.000000
vn -1.000000 -0.000000 0.000000
vn -1.000000 -0.000000 0.000000
vn -1.000000 -0.000000 0.000000
vn -1.000000 -0.000000 0.000000
vn -1.000000 -0.000000 0.000000
vn -1.000000 -0.000000 0.000000
vn -1.000000 -0.000000 0.000000
vn -1.000000 -0.000000 0.000000
vn -1.000000 -0.000000 0.000000
vn -1.000000 -0.000000 0.000000
vn 1.000000 0.000000 0.000000
vn 1.000000 0.000000 0.000008
vn 1.000000 0.000000 0.000001
vn 1.000000 0.000000 0.000008
vn 1.000000 0.000000 0.000000
vn 1.000000 0.000000 0.000000
vn 1.000000 0.000000 0.000000
vn 1.000000 0.000000 -0.000004
vn 1.000000 0.000000 0.000004
vn 1.000000 0.000000 -0.000000
vn 1.000000 0.000000 0.000000
vn 1.000000 0.000000 0.000008
vn 1.000000 0.000000 0.000000
vn 1.000000 0.000000 0.000000
vn 1.000000 0.000000 0.000000
vn 1.000000 0.000000 -0.000001
vn 1.000000 0.000000 -0.000001
vn 1.000000 0.000000 0.000000
vn 1.000000 0.000000 0.000000
vn 1.000000 0.000000 0.000000
vn 1.000000 0.000000 0.000000
vn -1.000000 0.000000 -0.000000
vn -1.000000 0.000000 -0.000000
vn -1.000000 0.000000 -0.000000
vn -1.000000 0.000000 -0.000000
vn -1.000000 0.000000 -0.000000
vn -1.000000 0.000000 -0.000000
vn -1.000000 0.000000 -0.000000
vn -1.000000 0.000000 -0.000000
vn -1.000000 0.000000 -0.000000
vn -1.000000 0.000000 -0.000000
vn -1.000000 0.000000 -0.000000
vn -1.000000 0.000000 -0.000000
vn -1.000000 0.000000 -0.000000
vn -1.000000 0.000000 -0.000000
vn -1.000000 0.000000 -0.000000
vn -1.000000 0.000000 -0.000000
vn -1.000000 0.000000 -0.000000
vn -1.000000 0.000000 -0.000000
vn -1.000000 0.000000 -0.000000
vn -1.000000 0.000000 -0.000000
vn 0.275398 -0.914280 -0.297067
vn 0.275398 -0.777733 -0.565056
vn 1.000000 0.000003 -0.000002
vn 0.275398 -0.565056 -0.777733
vn 0.275398 -0.297067 -0.914279
vn 0.275398 0.000000 -0.961330
vn 0.275398 0.297068 -0.914279
vn 0.275398 0.565056 -0.777732
vn 0.275398 0.777733 -0.565056
vn 0.275398 0.914280 -0.297067
vn 0.275398 0.961330 0.000001
vn 0.275398 0.914279 0.297068
vn 0.275398 0.777733 0.565055
vn 0.275398 0.565056 0.777732
vn 0.275398 0.297067 0.914280
vn 0.275398 0.000000 0.961330
vn 0.275398 -0.297068 0.914279
vn 0.275398 -0.565056 0.777733
vn 0.275398 -0.777732 0.565056
vn 0.275398 -0.914279 0.297068
vn 0.275398 -0.961330 0.000001
s 1
g Gizmo_X2
usemtl lambert2SG
f 64/147/124 65/148/125 85/169/126 84/168/127
f 65/148/125 66/149/128 86/170/129 85/169/126
f 66/149/128 67/150/130 87/171/131 86/170/129
f 67/150/130 68/151/132 88/172/133 87/171/131
f 68/151/132 69/152/134 89/173/135 88/172/133
f 69/152/134 70/153/136 90/174/137 89/173/135
f 70/153/136 71/154/138 91/175/139 90/174/137
f 71/154/138 72/155/140 92/176/141 91/175/139
f 72/155/140 73/156/142 93/177/143 92/176/141
f 73/156/142 74/157/144 94/178/145 93/177/143
f 74/157/144 75/158/146 95/179/147 94/178/145
f 75/158/146 76/159/148 96/180/149 95/179/147
f 76/159/148 77/160/150 97/181/151 96/180/149
f 77/160/150 78/161/152 98/182/153 97/181/151
f 78/161/152 79/162/154 99/183/155 98/182/153
f 79/162/154 80/163/156 100/184/157 99/183/155
f 80/163/156 81/164/158 101/185/159 100/184/157
f 81/164/158 82/165/160 102/186/161 101/185/159
f 82/165/160 83/166/162 103/187/163 102/186/161
f 83/166/162 64/167/124 84/188/127 103/187/163
s 2
f 65/128/164 64/127/165 104/209/166
f 66/129/167 65/128/164 104/209/166
f 67/130/168 66/129/167 104/209/166
f 68/131/169 67/130/168 104/209/166
f 69/132/170 68/131/169 104/209/166
f 70/133/171 69/132/170 104/209/166
f 71/134/172 70/133/171 104/209/166
f 72/135/173 71/134/172 104/209/166
f 73/136/174 72/135/173 104/209/166
f 74/137/175 73/136/174 104/209/166
f 75/138/176 74/137/175 104/209/166
f 76/139/177 75/138/176 104/209/166
f 77/140/178 76/139/177 104/209/166
f 78/141/179 77/140/178 104/209/166
f 79/142/180 78/141/179 104/209/166
f 80/143/181 79/142/180 104/209/166
f 81/144/182 80/143/181 104/209/166
f 82/145/183 81/144/182 104/209/166
f 83/146/184 82/145/183 104/209/166
f 64/127/165 83/146/184 104/209/166
s 3
f 84/207/185 85/206/186 105/210/187
f 85/206/186 86/205/188 105/210/187
f 86/205/188 87/204/189 105/210/187
f 87/204/189 88/203/190 105/210/187
f 88/203/190 89/202/191 105/210/187
f 89/202/191 90/201/192 105/210/187
f 90/201/192 91/200/193 105/210/187
f 91/200/193 92/199/194 105/210/187
f 92/199/194 93/198/195 105/210/187
f 93/198/195 94/197/196 105/210/187
f 94/197/196 95/196/197 105/210/187
f 95/196/197 96/195/198 105/210/187
f 96/195/198 97/194/199 105/210/187
f 97/194/199 98/193/200 105/210/187
f 98/193/200 99/192/201 105/210/187
f 99/192/201 100/191/202 105/210/187
f 100/191/202 101/190/203 105/210/187
f 101/190/203 102/189/204 105/210/187
f 102/189/204 103/208/205 105/210/187
f 103/208/205 84/207/185 105/210/187
s off
f 106/211/206 125/212/207 124/213/208 123/214/209 122/215/210 121/216/211 120/217/212 119/218/213 118/219/214 117/220/215 116/221/216 115/222/217 114/223/218 113/224/219 112/225/220 111/226/221 110/227/222 109/228/223 108/229/224 107/230/225
s 4
f 106/231/226 107/232/227 126/233/228
f 107/232/227 108/234/229 126/233/228
f 108/234/229 109/235/230 126/233/228
f 109/235/230 110/236/231 126/233/228
f 110/236/231 111/237/232 126/233/228
f 111/237/232 112/238/233 126/233/228
f 112/238/233 113/239/234 126/233/228
f 113/239/234 114/240/235 126/233/228
f 114/240/235 115/241/236 126/233/228
f 115/241/236 116/242/237 126/233/228
f 116/242/237 117/243/238 126/233/228
f 117/243/238 118/244/239 126/233/228
f 118/244/239 119/245/240 126/233/228
f 119/245/240 120/246/241 126/233/228
f 120/246/241 121/247/242 126/233/228
f 121/247/242 122/248/243 126/233/228
f 122/248/243 123/249/244 126/233/228
f 123/249/244 124/250/245 126/233/228
f 124/250/245 125/251/246 126/233/228
f 125/251/246 106/252/226 126/233/228
g default
v 0.103397 0.454545 -0.033596
v 0.087955 0.454545 -0.063903
v 0.063903 0.454545 -0.087955
v 0.033596 0.454545 -0.103397
v 0.000000 0.454545 -0.108718
v -0.033596 0.454545 -0.103397
v -0.063903 0.454545 -0.087955
v -0.087955 0.454545 -0.063903
v -0.103397 0.454545 -0.033596
v -0.108718 0.454545 0.000000
v -0.103397 0.454545 0.033596
v -0.087955 0.454545 0.063903
v -0.063903 0.454545 0.087955
v -0.033596 0.454545 0.103397
v -0.000000 0.454545 0.108718
v 0.033596 0.454545 0.103397
v 0.063903 0.454545 0.087955
v 0.087955 0.454545 0.063903
v 0.103397 0.454545 0.033596
v 0.108718 0.454545 0.000000
v 0.103397 3.454545 -0.033596
v 0.087955 3.454545 -0.063903
v 0.063903 3.454545 -0.087955
v 0.033596 3.454545 -0.103397
v 0.000000 3.454545 -0.108718
v -0.033596 3.454545 -0.103397
v -0.063903 3.454545 -0.087955
v -0.087955 3.454545 -0.063903
v -0.103397 3.454545 -0.033596
v -0.108718 3.454545 -0.000000
v -0.103397 3.454545 0.033596
v -0.087955 3.454545 0.063903
v -0.063903 3.454545 0.087955
v -0.033596 3.454545 0.103397
v -0.000000 3.454545 0.108718
v 0.033596 3.454545 0.103397
v 0.063903 3.454545 0.087955
v 0.087955 3.454545 0.063903
v 0.103397 3.454545 0.033596
v 0.108718 3.454545 -0.000000
v 0.000000 0.454545 0.000000
v 0.000000 3.454545 -0.000000
v 0.266400 3.192939 -0.086559
v 0.226614 3.192939 -0.164645
v 0.164645 3.192939 -0.226614
v 0.086559 3.192939 -0.266400
v 0.000000 3.192939 -0.280110
v -0.086559 3.192939 -0.266400
v -0.164645 3.192939 -0.226614
v -0.226614 3.192939 -0.164644
v -0.266400 3.192939 -0.086559
v -0.280110 3.192939 0.000000
v -0.266400 3.192939 0.086559
v -0.226614 3.192939 0.164644
v -0.164644 3.192939 0.226614
v -0.086559 3.192939 0.266400
v -0.000000 3.192939 0.280110
v 0.086559 3.192939 0.266400
v 0.164644 3.192939 0.226614
v 0.226614 3.192939 0.164644
v 0.266400 3.192939 0.086559
v 0.280110 3.192939 0.000000
v 0.000000 4.170717 0.000000
vt 0.648603 0.107966
vt 0.626409 0.064408
vt 0.591842 0.029841
vt 0.548284 0.007647
vt 0.500000 -0.000000
vt 0.451716 0.007647
vt 0.408159 0.029841
vt 0.373591 0.064409
vt 0.351397 0.107966
vt 0.343750 0.156250
vt 0.351397 0.204534
vt 0.373591 0.248091
vt 0.408159 0.282659
vt 0.451716 0.304853
vt 0.500000 0.312500
vt 0.548284 0.304853
vt 0.591841 0.282659
vt 0.626409 0.248091
vt 0.648603 0.204534
vt 0.656250 0.156250
vt 0.375000 0.312500
vt 0.387500 0.312500
vt 0.400000 0.312500
vt 0.412500 0.312500
vt 0.425000 0.312500
vt 0.437500 0.312500
vt 0.450000 0.312500
vt 0.462500 0.312500
vt 0.475000 0.312500
vt 0.487500 0.312500
vt 0.500000 0.312500
vt 0.512500 0.312500
vt 0.525000 0.312500
vt 0.537500 0.312500
vt 0.550000 0.312500
vt 0.562500 0.312500
vt 0.575000 0.312500
vt 0.587500 0.312500
vt 0.600000 0.312500
vt 0.612500 0.312500
vt 0.625000 0.312500
vt 0.375000 0.687500
vt 0.387500 0.687500
vt 0.400000 0.687500
vt 0.412500 0.687500
vt 0.425000 0.687500
vt 0.437500 0.687500
vt 0.450000 0.687500
vt 0.462500 0.687500
vt 0.475000 0.687500
vt 0.487500 0.687500
vt 0.500000 0.687500
vt 0.512500 0.687500
vt 0.525000 0.687500
vt 0.537500 0.687500
vt 0.550000 0.687500
vt 0.562500 0.687500
vt 0.575000 0.687500
vt 0.587500 0.687500
vt 0.600000 0.687500
vt 0.612500 0.687500
vt 0.625000 0.687500
vt 0.648603 0.795466
vt 0.626409 0.751908
vt 0.591842 0.717341
vt 0.548284 0.695147
vt 0.500000 0.687500
vt 0.451716 0.695147
vt 0.408159 0.717341
vt 0.373591 0.751909
vt 0.351397 0.795466
vt 0.343750 0.843750
vt 0.351397 0.892034
vt 0.373591 0.935591
vt 0.408159 0.970159
vt 0.451716 0.992353
vt 0.500000 1.000000
vt 0.548284 0.992353
vt 0.591841 0.970159
vt 0.626409 0.935591
vt 0.648603 0.892034
vt 0.656250 0.843750
vt 0.500000 0.156250
vt 0.500000 0.843750
vt 0.737764 0.172746
vt 0.750000 0.250000
vt 0.737764 0.327254
vt 0.702254 0.396946
vt 0.646946 0.452254
vt 0.577254 0.487764
vt 0.500000 0.500000
vt 0.422746 0.487764
vt 0.353054 0.452254
vt 0.297746 0.396946
vt 0.262236 0.327254
vt 0.250000 0.250000
vt 0.262236 0.172746
vt 0.297746 0.103054
vt 0.353054 0.047746
vt 0.422746 0.012236
vt 0.500000 -0.000000
vt 0.577254 0.012236
vt 0.646946 0.047746
vt 0.702254 0.103054
vt 0.250000 0.500000
vt 0.275000 0.500000
vt 0.500000 1.000000
vt 0.300000 0.500000
vt 0.325000 0.500000
vt 0.350000 0.500000
vt 0.375000 0.500000
vt 0.400000 0.500000
vt 0.425000 0.500000
vt 0.450000 0.500000
vt 0.475000 0.500000
vt 0.500000 0.500000
vt 0.525000 0.500000
vt 0.550000 0.500000
vt 0.575000 0.500000
vt 0.600000 0.500000
vt 0.625000 0.500000
vt 0.650000 0.500000
vt 0.675000 0.500000
vt 0.700000 0.500000
vt 0.725000 0.500000
vt 0.750000 0.500000
vn 0.951057 -0.000000 -0.309016
vn 0.809017 -0.000000 -0.587785
vn 0.809017 -0.000000 -0.587785
vn 0.951057 -0.000000 -0.309016
vn 0.587785 -0.000000 -0.809017
vn 0.587785 -0.000000 -0.809017
vn 0.309017 -0.000000 -0.951057
vn 0.309017 -0.000000 -0.951057
vn -0.000000 -0.000000 -1.000000
vn -0.000000 -0.000000 -1.000000
vn -0.309017 -0.000000 -0.951057
vn -0.309017 -0.000000 -0.951057
vn -0.587786 -0.000000 -0.809017
vn -0.587786 -0.000000 -0.809017
vn -0.809017 -0.000000 -0.587785
vn -0.809017 -0.000000 -0.587785
vn -0.951057 -0.000000 -0.309017
vn -0.951057 -0.000000 -0.309017
vn -1.000000 -0.000000 0.000000
vn -1.000000 -0.000000 0.000000
vn -0.951057 -0.000000 0.309017
vn -0.951057 -0.000000 0.309017
vn -0.809017 -0.000000 0.587786
vn -0.809017 -0.000000 0.587786
vn -0.587785 -0.000000 0.809017
vn -0.587785 -0.000000 0.809017
vn -0.309017 -0.000000 0.951057
vn -0.309017 -0.000000 0.951057
vn 0.000000 -0.000000 1.000000
vn 0.000000 -0.000000 1.000000
vn 0.309017 -0.000000 0.951057
vn 0.309017 -0.000000 0.951057
vn 0.587785 -0.000000 0.809017
vn 0.587785 -0.000000 0.809017
vn 0.809017 -0.000000 0.587786
vn 0.809017 -0.000000 0.587786
vn 0.951057 -0.000000 0.309017
vn 0.951057 -0.000000 0.309017
vn 1.000000 -0.000000 0.000001
vn 1.000000 -0.000000 0.000001
vn 0.000000 -1.000000 0.000000
vn 0.000000 -1.000000 0.000000
vn 0.000000 -1.000000 0.000000
vn 0.000000 -1.000000 0.000000
vn 0.000000 -1.000000 0.000000
vn 0.000000 -1.000000 0.000000
vn 0.000000 -1.000000 0.000000
vn 0.000000 -1.000000 0.000000
vn 0.000000 -1.000000 0.000000
vn 0.000000 -1.000000 0.000000
vn 0.000000 -1.000000 0.000000
vn 0.000000 -1.000000 0.000000
vn 0.000000 -1.000000 0.000000
vn 0.000000 -1.000000 0.000000
vn 0.000000 -1.000000 0.000000
vn 0.000000 -1.000000 0.000000
vn 0.000000 -1.000000 0.000000
vn 0.000000 -1.000000 0.000000
vn 0.000000 -1.000000 0.000000
vn 0.000000 -1.000000 0.000000
vn 0.000000 -1.000000 0.000000
vn 0.000000 1.000000 0.000000
vn 0.000000 1.000000 0.000008
vn 0.000000 1.000000 0.000001
vn 0.000000 1.000000 0.000008
vn 0.000000 1.000000 0.000000
vn 0.000000 1.000000 0.000000
vn 0.000000 1.000000 0.000000
vn 0.000000 1.000000 -0.000004
vn 0.000000 1.000000 0.000004
vn 0.000000 1.000000 -0.000000
vn 0.000000 1.000000 0.000000
vn 0.000000 1.000000 0.000008
vn 0.000000 1.000000 0.000000
vn 0.000000 1.000000 0.000000
vn 0.000000 1.000000 0.000000
vn 0.000000 1.000000 -0.000001
vn 0.000000 1.000000 -0.000001
vn 0.000000 1.000000 0.000000
vn 0.000000 1.000000 0.000000
vn 0.000000 1.000000 0.000000
vn 0.000000 1.000000 0.000000
vn 0.000000 -1.000000 -0.000000
vn 0.000000 -1.000000 -0.000000
vn 0.000000 -1.000000 -0.000000
vn 0.000000 -1.000000 -0.000000
vn 0.000000 -1.000000 -0.000000
vn 0.000000 -1.000000 -0.000000
vn 0.000000 -1.000000 -0.000000
vn 0.000000 -1.000000 -0.000000
vn 0.000000 -1.000000 -0.000000
vn 0.000000 -1.000000 -0.000000
vn 0.000000 -1.000000 -0.000000
vn 0.000000 -1.000000 -0.000000
vn 0.000000 -1.000000 -0.000000
vn 0.000000 -1.000000 -0.000000
vn 0.000000 -1.000000 -0.000000
vn 0.000000 -1.000000 -0.000000
vn 0.000000 -1.000000 -0.000000
vn 0.000000 -1.000000 -0.000000
vn 0.000000 -1.000000 -0.000000
vn 0.000000 -1.000000 -0.000000
vn 0.914280 0.275398 -0.297067
vn 0.777733 0.275398 -0.565056
vn -0.000003 1.000000 -0.000002
vn 0.565056 0.275398 -0.777733
vn 0.297067 0.275398 -0.914279
vn 0.000000 0.275398 -0.961330
vn -0.297068 0.275398 -0.914279
vn -0.565056 0.275398 -0.777732
vn -0.777733 0.275398 -0.565056
vn -0.914280 0.275398 -0.297067
vn -0.961330 0.275398 0.000001
vn -0.914279 0.275398 0.297068
vn -0.777733 0.275398 0.565055
vn -0.565056 0.275398 0.777732
vn -0.297067 0.275398 0.914280
vn 0.000000 0.275398 0.961330
vn 0.297068 0.275398 0.914279
vn 0.565056 0.275398 0.777733
vn 0.777732 0.275398 0.565056
vn 0.914279 0.275398 0.297068
vn 0.961330 0.275398 0.000001
s 1
g Gizmo_Y2
usemtl lambert3SG
f 127/273/247 128/274/248 148/295/249 147/294/250
f 128/274/248 129/275/251 149/296/252 148/295/249
f 129/275/251 130/276/253 150/297/254 149/296/252
f 130/276/253 131/277/255 151/298/256 150/297/254
f 131/277/255 132/278/257 152/299/258 151/298/256
f 132/278/257 133/279/259 153/300/260 152/299/258
f 133/279/259 134/280/261 154/301/262 153/300/260
f 134/280/261 135/281/263 155/302/264 154/301/262
f 135/281/263 136/282/265 156/303/266 155/302/264
f 136/282/265 137/283/267 157/304/268 156/303/266
f 137/283/267 138/284/269 158/305/270 157/304/268
f 138/284/269 139/285/271 159/306/272 158/305/270
f 139/285/271 140/286/273 160/307/274 159/306/272
f 140/286/273 141/287/275 161/308/276 160/307/274
f 141/287/275 142/288/277 162/309/278 161/308/276
f 142/288/277 143/289/279 163/310/280 162/309/278
f 143/289/279 144/290/281 164/311/282 163/310/280
f 144/290/281 145/291/283 165/312/284 164/311/282
f 145/291/283 146/292/285 166/313/286 165/312/284
f 146/292/285 127/293/247 147/314/250 166/313/286
s 2
f 128/254/287 127/253/288 167/335/289
f 129/255/290 128/254/287 167/335/289
f 130/256/291 129/255/290 167/335/289
f 131/257/292 130/256/291 167/335/289
f 132/258/293 131/257/292 167/335/289
f 133/259/294 132/258/293 167/335/289
f 134/260/295 133/259/294 167/335/289
f 135/261/296 134/260/295 167/335/289
f 136/262/297 135/261/296 167/335/289
f 137/263/298 136/262/297 167/335/289
f 138/264/299 137/263/298 167/335/289
f 139/265/300 138/264/299 167/335/289
f 140/266/301 139/265/300 167/335/289
f 141/267/302 140/266/301 167/335/289
f 142/268/303 141/267/302 167/335/289
f 143/269/304 142/268/303 167/335/289
f 144/270/305 143/269/304 167/335/289
f 145/271/306 144/270/305 167/335/289
f 146/272/307 145/271/306 167/335/289
f 127/253/288 146/272/307 167/335/289
s 3
f 147/333/308 148/332/309 168/336/310
f 148/332/309 149/331/311 168/336/310
f 149/331/311 150/330/312 168/336/310
f 150/330/312 151/329/313 168/336/310
f 151/329/313 152/328/314 168/336/310
f 152/328/314 153/327/315 168/336/310
f 153/327/315 154/326/316 168/336/310
f 154/326/316 155/325/317 168/336/310
f 155/325/317 156/324/318 168/336/310
f 156/324/318 157/323/319 168/336/310
f 157/323/319 158/322/320 168/336/310
f 158/322/320 159/321/321 168/336/310
f 159/321/321 160/320/322 168/336/310
f 160/320/322 161/319/323 168/336/310
f 161/319/323 162/318/324 168/336/310
f 162/318/324 163/317/325 168/336/310
f 163/317/325 164/316/326 168/336/310
f 164/316/326 165/315/327 168/336/310
f 165/315/327 166/334/328 168/336/310
f 166/334/328 147/333/308 168/336/310
s off
f 169/337/329 188/338/330 187/339/331 186/340/332 185/341/333 184/342/334 183/343/335 182/344/336 181/345/337 180/346/338 179/347/339 178/348/340 177/349/341 176/350/342 175/351/343 174/352/344 173/353/345 172/354/346 171/355/347 170/356/348
s 4
f 169/357/349 170/358/350 189/359/351
f 170/358/350 171/360/352 189/359/351
f 171/360/352 172/361/353 189/359/351
f 172/361/353 173/362/354 189/359/351
f 173/362/354 174/363/355 189/359/351
f 174/363/355 175/364/356 189/359/351
f 175/364/356 176/365/357 189/359/351
f 176/365/357 177/366/358 189/359/351
f 177/366/358 178/367/359 189/359/351
f 178/367/359 179/368/360 189/359/351
f 179/368/360 180/369/361 189/359/351
f 180/369/361 181/370/362 189/359/351
f 181/370/362 182/371/363 189/359/351
f 182/371/363 183/372/364 189/359/351
f 183/372/364 184/373/365 189/359/351
f 184/373/365 185/374/366 189/359/351
f 185/374/366 186/375/367 189/359/351
f 186/375/367 187/376/368 189/359/351
f 187/376/368 188/377/369 189/359/351
f 188/377/369 169/378/349 189/359/351
