{
	"asset":{
		"generator":"Khronos glTF Blender I/O v4.3.47",
		"version":"2.0"
	},
	"scene":0,
	"scenes":[
		{
			"name":"Scene",
			"nodes":[
				0
			]
		}
	],
	"nodes":[
		{
			"mesh":0,
			"name":"Object_2",
			"rotation":[
				-0.9999994039535522,
				0,
				0,
				0.001175967394374311
			],
			"scale":[
				0.04541175812482834,
				0.04541178047657013,
				0.04541178047657013
			]
		}
	],
	"materials":[
		{
			"doubleSided":true,
			"name":"material_0",
			"normalTexture":{
				"index":0
			},
			"pbrMetallicRoughness":{
				"baseColorTexture":{
					"index":1
				},
				"metallicFactor":0
			}
		}
	],
	"meshes":[
		{
			"name":"Object_0",
			"primitives":[
				{
					"attributes":{
						"POSITION":0,
						"NORMAL":1,
						"TEXCOORD_0":2,
						"TANGENT":3
					},
					"indices":4,
					"material":0
				}
			]
		}
	],
	"textures":[
		{
			"sampler":0,
			"source":0
		},
		{
			"sampler":0,
			"source":1
		}
	],
	"images":[
		{
			"mimeType":"image/png",
			"name":"material_0_normal",
			"uri":"Textures/material_0_normal.png"
		},
		{
			"mimeType":"image/png",
			"name":"material_0_baseColor",
			"uri":"Textures/material_0_baseColor.png"
		}
	],
	"accessors":[
		{
			"bufferView":0,
			"componentType":5126,
			"count":22578,
			"max":[
				14.155367851257324,
				0.15436744689941406,
				7.713832378387451
			],
			"min":[
				-14.376501083374023,
				-30.587007522583008,
				-7.039681911468506
			],
			"type":"VEC3"
		},
		{
			"bufferView":1,
			"componentType":5126,
			"count":22578,
			"type":"VEC3"
		},
		{
			"bufferView":2,
			"componentType":5126,
			"count":22578,
			"type":"VEC2"
		},
		{
			"bufferView":3,
			"componentType":5126,
			"count":22578,
			"type":"VEC4"
		},
		{
			"bufferView":4,
			"componentType":5123,
			"count":85464,
			"type":"SCALAR"
		}
	],
	"bufferViews":[
		{
			"buffer":0,
			"byteLength":270936,
			"byteOffset":0,
			"target":34962
		},
		{
			"buffer":0,
			"byteLength":270936,
			"byteOffset":270936,
			"target":34962
		},
		{
			"buffer":0,
			"byteLength":180624,
			"byteOffset":541872,
			"target":34962
		},
		{
			"buffer":0,
			"byteLength":361248,
			"byteOffset":722496,
			"target":34962
		},
		{
			"buffer":0,
			"byteLength":170928,
			"byteOffset":1083744,
			"target":34963
		}
	],
	"samplers":[
		{
			"magFilter":9729,
			"minFilter":9987
		}
	],
	"buffers":[
		{
			"byteLength":1254672,
			"uri":"scene.bin"
		}
	]
}
